<svg width="32" height="32" viewBox="0 0 32 32" fill="none" xmlns="http://www.w3.org/2000/svg">
  <!-- Rose petals -->
  <path d="M16 8 C12 4, 4 6, 6 12 C8 18, 16 20, 16 20 C16 20, 24 18, 26 12 C28 6, 20 4, 16 8 Z" fill="#FF69B4" opacity="0.9"/>
  <path d="M16 12 C10 8, 8 12, 12 16 C16 20, 20 16, 24 12 C20 8, 16 12, 16 12 Z" fill="#FFB6C1" opacity="0.8"/>
  <path d="M16 16 C12 12, 8 14, 10 18 C12 22, 16 24, 16 24 C16 24, 20 22, 22 18 C24 14, 20 12, 16 16 Z" fill="#FF1493" opacity="0.7"/>
  
  <!-- Rose center -->
  <circle cx="16" cy="16" r="3" fill="#DC143C"/>
  <circle cx="16" cy="16" r="1.5" fill="#B22222"/>
  
  <!-- Rose stem -->
  <rect x="15" y="24" width="2" height="6" fill="#228B22" rx="1"/>
  
  <!-- Small leaves -->
  <ellipse cx="12" cy="26" rx="2" ry="1" fill="#32CD32" transform="rotate(-30 12 26)"/>
  <ellipse cx="20" cy="26" rx="2" ry="1" fill="#32CD32" transform="rotate(30 20 26)"/>
  
  <!-- Sparkles around rose -->
  <circle cx="8" cy="10" r="1" fill="#FFD700" opacity="0.8"/>
  <circle cx="24" cy="10" r="1" fill="#FFD700" opacity="0.8"/>
  <circle cx="6" cy="20" r="1" fill="#FFD700" opacity="0.8"/>
  <circle cx="26" cy="20" r="1" fill="#FFD700" opacity="0.8"/>
</svg>
